<?xml version="1.0" encoding="UTF-8" standalone="no"?>
<svg
   xmlns:dc="http://purl.org/dc/elements/1.1/"
   xmlns:cc="http://creativecommons.org/ns#"
   xmlns:rdf="http://www.w3.org/1999/02/22-rdf-syntax-ns#"
   xmlns:svg="http://www.w3.org/2000/svg"
   xmlns="http://www.w3.org/2000/svg"
   xmlns:sodipodi="http://sodipodi.sourceforge.net/DTD/sodipodi-0.dtd"
   xmlns:inkscape="http://www.inkscape.org/namespaces/inkscape"
   width="272"
   height="208"
   viewBox="0 0 272 208"
   fill="none"
   version="1.1"
   id="svg52"
   sodipodi:docname="maze_blue.svg"
   inkscape:version="1.0 (4035a4fb49, 2020-05-01)">
  <metadata
     id="metadata58">
    <rdf:RDF>
      <cc:Work
         rdf:about="">
        <dc:format>image/svg+xml</dc:format>
        <dc:type
           rdf:resource="http://purl.org/dc/dcmitype/StillImage" />
        <dc:title></dc:title>
      </cc:Work>
    </rdf:RDF>
  </metadata>
  <defs
     id="defs56" />
  <sodipodi:namedview
     inkscape:guide-bbox="true"
     showguides="true"
     inkscape:document-rotation="0"
     pagecolor="#ffffff"
     bordercolor="#666666"
     borderopacity="1"
     objecttolerance="10"
     gridtolerance="10"
     guidetolerance="10"
     inkscape:pageopacity="0"
     inkscape:pageshadow="2"
     inkscape:window-width="1920"
     inkscape:window-height="1036"
     id="namedview54"
     showgrid="true"
     inkscape:zoom="2.3921879"
     inkscape:cx="168.88247"
     inkscape:cy="93.017121"
     inkscape:window-x="1920"
     inkscape:window-y="44"
     inkscape:window-maximized="0"
     inkscape:current-layer="svg52">
    <inkscape:grid
       originy="0"
       originx="0"
       empspacing="8"
       id="grid3186"
       type="xygrid" />
    <sodipodi:guide
       id="guide107309"
       orientation="1,0"
       position="272,144" />
    <sodipodi:guide
       id="guide107311"
       orientation="1,0"
       position="0,168" />
    <sodipodi:guide
       id="guide107313"
       orientation="0,-1"
       position="72,208" />
    <sodipodi:guide
       id="guide107315"
       orientation="0,-1"
       position="104,0" />
  </sodipodi:namedview>
  <rect
     y="0"
     x="0"
     width="272"
     height="208"
     fill="#ffffff"
     id="rect2" />
  <rect
     style="stroke-width:1.00917"
     y="1.976197e-14"
     x="0"
     width="272"
     height="208"
     fill="#000000"
     id="rect4" />
  <path
     sodipodi:nodetypes="cccccccccccccccccccccccccc"
     fill-rule="evenodd"
     clip-rule="evenodd"
     d="M 128,83.999997 H 108 V 116 h 56 V 83.999997 h -20 v 4 h 16 V 112 H 112 V 87.999997 h 16 z m -1,1 H 109 V 115 h 54 V 84.999997 h -18 v 2 h 16 V 113 H 111 V 86.999997 h 16 z"
     fill="#2121ff"
     id="path6" />
  <path
     d="m 128,88 v -2 h 16 v 2 z"
     fill="#fcb5ff"
     id="path8" />
  <path
     fill-rule="evenodd"
     clip-rule="evenodd"
     d="m 62,124 h 4 v 1 h -4 z m -1,2 h 1 v -1 h -1 z m 0,28 v -28 h -1 v 28 z m 1,1 v -1 h -1 v 1 z m 4,0 h -4 v 1 h 4 z m 1,-1 h -1 v 1 h 1 z m 0,-28 h -1 v -1 h 1 z m 0,0 v 28 h 1 v -28 z"
     fill="#2121ff"
     id="path14" />
  <path
     fill-rule="evenodd"
     clip-rule="evenodd"
     d="m 158,124 h 4 v 1 h -4 z m -1,2 h 1 v -1 h -1 z m 0,28 v -28 h -1 v 28 z m 1,1 v -1 h -1 v 1 z m 4,0 h -4 v 1 h 4 z m 1,-1 h -1 v 1 h 1 z m 0,-28 h -1 v -1 h 1 z m 0,0 v 28 h 1 v -28 z"
     fill="#2121ff"
     id="path16" />
  <path
     fill-rule="evenodd"
     clip-rule="evenodd"
     d="m 164,174 v 4 h -1 v -4 z m -2,-1 v 1 h 1 v -1 z m -28,0 h 28 v -1 h -28 z m -1,1 h 1 v -1 h -1 z m 0,4 v -4 h -1 v 4 z m 1,1 v -1 h -1 v 1 z m 28,0 v -1 h 1 v 1 z m 0,0 h -28 v 1 h 28 z"
     fill="#2121ff"
     id="path18" />
  <path
     fill-rule="evenodd"
     clip-rule="evenodd"
     d="m 92,174 v 4 h -1 v -4 z m -2,-1 v 1 h 1 v -1 z m -28,0 h 28 v -1 H 62 Z m -1,1 h 1 v -1 h -1 z m 0,4 v -4 h -1 v 4 z m 1,1 v -1 h -1 v 1 z m 28,0 v -1 h 1 v 1 z m 0,0 H 62 v 1 h 28 z"
     fill="#2121ff"
     id="path20" />
  <path
     sodipodi:nodetypes="cccccccccccccccccccccccccccccccccccccccc"
     fill-rule="evenodd"
     clip-rule="evenodd"
     d="m 44,66 h 20 v 1 H 44 Z m -1,2 h 1 v -1 h -1 z m 0,12 V 68 h -1 v 12 z m 1,1 v -1 h -1 v 1 z m 20,0 H 44 v 1 h 20 z m 1,-1 h -1 v 1 h 1 z m 0,-12 h -1 v -1 h 1 z m 0,0 v 12 h 1 V 68 Z"
     fill="#2121ff"
     id="path22" />
  <path
     sodipodi:nodetypes="cccccccccccccccccccccccccccccccccccccccc"
     fill-rule="evenodd"
     clip-rule="evenodd"
     d="m 196,122 h 28 v 1 h -28 z m -1,2 h 1 v -1 h -1 z m 0,12 v -12 h -1 v 12 z m 1,1 v -1 h -1 v 1 z m 28,0 h -28 v 1 h 28 z m 1,-1 h -1 v 1 h 1 z m 0,-12 h -1 v -1 h 1 z m 0,0 v 12 h 1 v -12 z"
     fill="#2121ff"
     id="path26" />
  <path
     fill-rule="evenodd"
     clip-rule="evenodd"
     d="m 140,150 v 4 h -1 v -4 z m -2,-1 v 1 h 1 v -1 z m -52,0 h 52 v -1 H 86 Z m -1,1 h 1 v -1 h -1 z m 0,4 v -4 h -1 v 4 z m 1,1 v -1 h -1 v 1 z m 21,1 v -1 H 86 v 1 z m 1,1 v -1 h -1 v 1 z m 1,21 v -21 h -1 v 21 z m 1,1 v -1 h -1 v 1 z m 4,0 h -4 v 1 h 4 z m 1,-1 h -1 v 1 h 1 z m 1,-21 h -1 v 21 h 1 z m 1,-1 h -1 v 1 h 1 z m 21,-1 v -1 h 1 v 1 z m 0,0 h -21 v 1 h 21 z"
     fill="#2121ff"
     id="path36" />
  <path
     fill-rule="evenodd"
     clip-rule="evenodd"
     d="m 22,172 h 20 v 1 H 22 Z m -1,2 h 1 v -1 h -1 z m 0,4 v -4 h -1 v 4 z m 1,1 v -1 h -1 v 1 z m 13,1 v -1 H 22 v 1 z m 1,1 v -1 h -1 v 1 z m 1,21 v -21 h -1 v 21 z m 1,1 v -1 h -1 v 1 z m 4,0 h -4 v 1 h 4 z m 1,-1 h -1 v 1 h 1 z m 0,-28 h -1 v -1 h 1 z m 0,0 v 28 h 1 v -28 z"
     fill="#2121ff"
     id="path40" />
  <path
     fill-rule="evenodd"
     clip-rule="evenodd"
     d="m 234,171 h -20 v 1 h 20 z m 1,2 h -1 v -1 h 1 z m 0,4 v -4 h 1 v 4 z m -1,1 v -1 h 1 v 1 z m -13,1 v -1 h 13 v 1 z m -1,1 v -1 h 1 v 1 z m -1,21 v -21 h 1 v 21 z m -1,1 v -1 h 1 v 1 z m -4,0 h 4 v 1 h -4 z m -1,-1 h 1 v 1 h -1 z m 0,-28 h 1 v -1 h -1 z m 0,0 v 28 h -1 v -28 z"
     fill="#2121ff"
     id="path42" />
  <path
     style="stroke-width:1"
     sodipodi:nodetypes="ccccccccccccccccccccccccccccccccccccccccccccccccccccccccccccccccccccccccccccccccccccccccccccccccccccccccccccccccccccccccccccccccccccccccccccccccccccccccccccccccccccccccccccccccccccccccccccccccccccccccccc"
     fill-rule="evenodd"
     clip-rule="evenodd"
     d="m 0,104.98121 h 20.383503 v 1 H 0 Z m 0,3 v 1 h 18.383503 v 21.22812 H 4 v 1 H 2 v 1 H 1 v 2 H 0 v 69.79068 H 1 V 206 h 1 v 1 h 2 v 1 h 262.92693 v -1 h 2 v -1 h 1 v -1.99999 h 1 V 145 h -1 v -2 h -1 v -1 h -2 v -1 H 256 v -24 h 14.92693 v -1 H 256 v 1 h -1 v 24 h 1 v 1 h 10.92693 v 1 h 2 v 2 h 1 v 59.00001 h -1 V 206 h -2 v 1 H 4 v -1 H 2 v -1.99999 H 1 v -69.79068 h 1 v -2 h 2 v -1 h 14.383503 v -1 h 1 v -21.22812 h -1 v -1 z M 270.92693,114 v -1 H 254 v 1 h -1 v 1 h -1 v 28 h 1 v 1 h 1 v 1 h 11.92693 v 1 h 1 v 38 h -1 v 1 h -13 v 1 h -1 v 1 h -1 v 4 h 1 v 1 h 1 v 1 h 13 v 1 h 1 v 9 h -1 v 1.00001 H 5 V 203 H 4 v -38 h 1 v -0.99999 H 18 V 163 h 1 v -1 h 1 v -4 h -1 v -1 h -1 v -1 H 5 v -1 H 4 v -19.79067 h 1 v -1 h 15.383503 v -1 h 1 v -1 h 1 v -25.22812 h -1 v -1 h -1 v 1 h 1 v 25.22812 h -1 v 1 H 5 v 1 H 4 v 1 H 3 V 155 h 1 v 1 h 1 v 1 h 13 v 1 h 1 v 4 h -1 v 1 H 5 v 1.00001 H 4 V 165 H 3 v 38 h 1 v 1.00001 h 1 v 1 h 260.92693 v -1 h 1 V 203 h 1 v -9 h -1 v -1 h -1 v -1 h -13 v -1 h -1 v -4 h 1 v -1 h 13 v -1 h 1 v -1 h 1 v -38 h -1 v -1 h -1 v -1 H 254 v -1 h -1 v -28 h 1 v -1 z"
     fill="#2121ff"
     id="path48" />
  <path
     sodipodi:nodetypes="cccccccccccccccccccccccccccccccccccccccccccccccccccccccccccccccccccccccccccccccccccccccccccccccccccccccccccccccccccccccccccccccccccccccccccccccc"
     fill-rule="evenodd"
     clip-rule="evenodd"
     d="m 0,93.642832 h 12.895609 v -1 h 1 v -1 h 1 v -15.69558 h -1 v -1 h -1 v -1 H 5 v -1 H 4 V 5 H 5 V 4 h 112 v 0 h 148.60015 v 1 h 1 v 67.884222 h -1 v 1 H 251.6592 v 1 h -1 v 1 h -1 V 92 h 1 v 1 h 1 v 1 h 18.94095 V 93 H 251.6592 v -1 h -1 V 75.884222 h 1 v -1 h 13.94095 v -1 h 1 v -1 h 1 V 5 h -1 V 4 h -1 V 3 H 117 V 3 3 3 H 5 V 4 H 4 V 5 H 3 v 67.947252 h 1 v 1 h 1 v 1 h 7.895609 v 1 h 1 v 15.69558 h -1 v 1 H 0 Z m 0,-3 h 10.895609 v -1 h 1 v -11.69558 h -1 v -1 H 4 v -1 H 2 v -2 H 1 V 4 H 2 V 2 H 4 V 1 h 262.60015 v 1 h 2 v 2 h 1 v 69.884222 h -1 v 2 h -2 v 1 H 253.6592 v 1 h -1 V 90 h 1 v 1 h 16.94095 V 90 H 253.6592 V 77.884222 h 12.94095 v -1 h 2 v -1 h 1 v -2 h 1 V 4 h -1 V 2 h -1 V 1 h -2 V 0 H 4 V 1 H 2 V 2 H 1 V 4 H 0 v 69.947252 h 1 v 2 h 1 v 1 h 2 v 1 h 6.895609 v 11.69558 H 0 Z"
     fill="#2121ff"
     id="path50" />
  <path
     sodipodi:nodetypes="ccccccccccccccccccccccccccccccccccccccccccccccccccccccccccscccccccccccccccccccccccccccccccccccccccccccccccccccccccccccccccccccccccccccccccccccccccccccccccccccccccccccccccccccccccccccccccccc"
     style="fill:#3333de;fill-opacity:1;stroke:none;stroke-width:0.579068;stroke-opacity:1"
     d="M 35.319521,56.038116 23.841684,55.969476 22.731695,55.675192 21.621707,55.380908 20.293796,54.472772 18.965884,53.564647 18.144645,51.90709 17.323406,50.249544 V 40.72528 31.201026 l 0.821239,-1.657556 0.821239,-1.657557 1.58769,-1.123137 1.587689,-1.123137 8.785505,-0.189566 8.785505,-0.189565 2.246506,0.781162 2.246507,0.781151 1.296036,2.010166 1.296035,2.010166 V 37.559 44.274847 H 35.427007 24.056656 l 0.175918,2.218475 0.175917,2.218476 11.194433,0.160402 11.194433,0.160413 v 3.537053 3.537053 z m -3.29173,-18.270793 h 7.967885 v -2.678865 -2.678865 l -7.793593,0.164591 -7.793592,0.164592 -0.174292,2.514273 -0.174292,2.514274 z M 75.477836,56.05338 64,56 62.204874,55.457557 60.409748,54.915113 58.945735,53.099142 57.481722,51.283181 V 40.725261 30.167358 l 1.453449,-1.802867 1.453449,-1.802867 2.089093,-0.605604 2.089094,-0.605603 7.793592,-0.0032 7.793593,-0.0032 V 20.31547 15.286923 h 3.400841 3.40084 V 35.69691 56.106896 l -11.477837,-0.05339 z m -3.40084,-7.176977 7.793593,-0.164592 v -7.986517 -7.986518 l -7.793593,-0.164592 -7.793593,-0.164591 v 8.315701 8.3157 z m 39.785224,7.146471 -7.65189,-0.07723 -1.37545,-0.270072 -1.37545,-0.270083 -1.26805,-0.86719 -1.268048,-0.86719 -0.899046,-1.977448 -0.899041,-1.977437 V 37.530056 25.343887 h 3.388855 3.38886 l 0.15369,11.683974 0.15368,11.683984 7.79359,0.164591 7.7936,0.164591 V 37.192463 25.343887 h 3.40084 3.40084 v 12.969672 12.969682 l -1.45345,1.802856 -1.45345,1.802868 -2.08909,0.605603 -2.08909,0.605603 z m 43.10393,0.03051 -11.47783,-0.05338 -1.79513,-0.542443 -1.79513,-0.542444 -1.46401,-1.815971 -1.46401,-1.815961 V 40.725261 30.167358 l 1.45345,-1.802867 1.45344,-1.802867 2.08911,-0.605604 2.08909,-0.605603 11.19442,-0.0032 11.19444,-0.0032 v 3.549567 3.549557 H 155.1685 143.89301 l -0.34405,0.935774 -0.34405,0.935784 v 6.410758 6.410768 l 0.34405,0.935774 0.34405,0.935774 h 11.27549 11.27549 v 3.549567 3.549556 l -11.47784,-0.05339 z m 24.99637,0.05338 h -3.40084 v -3.549556 -3.549567 h 3.40084 3.40084 v 3.549567 3.549556 z m 31.50408,-0.03341 -11.47783,-0.03341 -1.96419,-0.7061 -1.9642,-0.7061 -1.29495,-2.010167 -1.29494,-2.010166 v -6.715847 -6.715846 h 11.37036 11.37034 l -0.17591,-2.218476 -0.17592,-2.218475 -11.19444,-0.160402 -11.19443,-0.160402 v -3.57843 -3.578418 l 12.32805,0.189264 12.32805,0.189264 1.63604,1.15621 1.63605,1.156211 0.77288,1.930658 0.77288,1.930658 v 12.146672 12.146672 l -11.47784,-0.03341 z m -3.25913,-7.065739 h 7.9353 V 46.345443 43.68327 h -7.9353 -7.93529 v 2.662173 2.662172 z m 28.17792,7.099124 h -3.38887 V 43.92057 31.734413 l 0.89905,-1.977448 0.89905,-1.977448 1.50988,-1.060439 1.50989,-1.06044 9.2106,-0.218191 9.21062,-0.218186 v 3.594123 3.594122 l -8.077,0.16414 -8.07699,0.16414 -0.1537,11.683984 -0.15368,11.683974 z"
     id="path107270" />
</svg>
