<?xml version="1.0" encoding="utf-8"?>
<!-- Generator: Adobe Illustrator 17.0.0, SVG Export Plug-In . SVG Version: 6.00 Build 0)  -->
<!DOCTYPE svg PUBLIC "-//W3C//DTD SVG 1.1//EN" "http://www.w3.org/Graphics/SVG/1.1/DTD/svg11.dtd">
<svg version="1.1" id="Capa_1" xmlns="http://www.w3.org/2000/svg" xmlns:xlink="http://www.w3.org/1999/xlink" x="0px" y="0px"
	 width="512px" height="512px" viewBox="0 0 512 512" enable-background="new 0 0 512 512" xml:space="preserve">
<g>
	<g>
		<g>
			<path fill="#009FE3" d="M176.904,290.305c-5.616,4.667-8.423,11.114-8.423,19.338c0,7.911,2.492,13.962,7.474,18.152
				c4.982,4.194,12.139,6.288,21.474,6.288c5.851,0,11.626-0.867,17.321-2.611c5.695-1.738,10.915-4.507,15.66-8.304v-42.947
				l-27.048,1.898C191.337,282.913,182.518,285.641,176.904,290.305z"/>
			<path fill="#009FE3" d="M493.282,205.715c-10.915,0-21.474,1.862-31.676,5.576c-10.204,3.718-18.074,8.82-23.609,15.305V390.08
				H348.78V129.787h72.845l6.88,33.219h4.035c6.484-12.654,15.422-22.026,26.812-28.118c5.598-2.992,11.64-5.24,18.116-6.763
				C433.301,51.546,350.589,0,255.835,0C114.627,0,0.156,114.471,0.156,255.678c0,17.883,1.843,35.335,5.337,52.183
				c5.585-3.085,12-4.852,18.831-4.852c21.547,0,39.014,17.467,39.014,39.014c0,18.748-13.229,34.394-30.859,38.145
				c43.713,78.26,127.346,131.188,223.355,131.188c141.207,0,255.678-114.471,255.678-255.678c0-16.93-1.662-33.469-4.802-49.479
				C502.622,205.883,498.161,205.715,493.282,205.715z M317.254,390.08h-73.081l-6.17-24.677h-4.033
				c-7.278,10.125-16.609,17.599-27.999,22.422c-11.389,4.823-24.283,7.237-38.676,7.237c-17.877,0-33.337-3.243-46.388-9.728
				c-13.05-6.484-22.979-15.501-29.778-27.048c-6.803-11.546-10.204-24.914-10.204-40.1c0-25.626,9.054-45.439,27.169-59.438
				c18.111-13.999,46.703-22.185,85.775-24.558l36.541-2.373c-0.318-9.806-2.334-17.559-6.05-23.253
				c-3.718-5.695-9.572-9.807-17.559-12.339c-7.989-2.528-18.944-3.796-32.862-3.796c-10.6,0-22.266,0.87-34.999,2.609
				c-12.734,1.743-24.64,4.271-35.709,7.593v-66.2c12.967-3.478,27.246-6.17,42.828-8.068c15.578-1.898,30.408-2.847,44.489-2.847
				c30.372,0,54.731,3.677,73.083,11.034c18.348,7.356,31.872,19.42,40.574,36.184c8.698,16.769,13.05,39.548,13.05,68.335V390.08z"
				/>
		</g>
	</g>
</g>
</svg>
