<?xml version="1.0" encoding="utf-8"?>
<!-- Generator: Adobe Illustrator 21.1.0, SVG Export Plug-In . SVG Version: 6.00 Build 0)  -->
<svg version="1.1" id="Layer_1" xmlns="http://www.w3.org/2000/svg" xmlns:xlink="http://www.w3.org/1999/xlink" x="0px" y="0px"
	 viewBox="0 0 639.7 721.4" style="enable-background:new 0 0 639.7 721.4;" xml:space="preserve">
<style type="text/css">
	.st0{fill:#0085BF;stroke:#0085BF;stroke-miterlimit:10;}
	.st1{fill:#009FE3;stroke:#FFFFFF;stroke-width:2.5;stroke-miterlimit:10;}
	.st2{fill:#FFFFFF;}
	.st3{fill:#009FE3;}
	.st4{fill:#F9D238;}
	.st5{fill:#009FE3;stroke:#009FE3;stroke-width:1.1508;stroke-miterlimit:10;}
</style>
<g>
	<path class="st0" d="M446.5,84.1c-18.8-18.8-41.8-28.4-68.3-28.4c-18.3,0-34.9,4.6-49.6,13.6l-0.1,0.1l-0.1,0.1l-0.1,0.1l-0.1,0.1
		l-0.1,0.1l-0.1,0.1l-0.1,0.1l-0.1,0.1l-0.1,0.1l-0.1,0.1l-0.1,0.1c0,0-0.2,0.2-0.3,0.2l-0.1,0.1l-0.1,0.1l-0.1,0.1l-0.1,0.1
		l-0.1,0.1c0,0-0.2,0.2-0.3,0.2l-0.1,0.1c-11.2,6.8-33.6,21.5-33.6,21.5l-0.1,0.1c-6.7,4.1-13,9.1-18.9,15
		c-18.8,18.9-28.4,41.7-28.4,67.6s9.4,48.7,27.9,67.8c18.6,19.2,41.2,29,67,29h3.3c17,0,33.1-4.5,47.8-13.4
		c0.9-0.6,34.9-22.3,34.9-22.3s0.2-0.2,0.3-0.2c0,0,0.2-0.2,0.3-0.2c0,0,0.5-0.3,0.6-0.4c0,0,0.4-0.2,0.4-0.3l0.1-0.1
		c0,0,0.2-0.2,0.3-0.2c0,0,0.5-0.3,0.6-0.4l0.1-0.1c0,0,0.2-0.2,0.3-0.2c0,0,0.4-0.2,0.4-0.3l0.1-0.1c0,0,0.2-0.2,0.3-0.2l0.1-0.1
		l0.1-0.1l0.1-0.1l0.1-0.1l0.1-0.1c13.4-8.6,24.2-20,32.1-33.8c8.4-14.7,12.7-30.7,12.7-47.4C474.9,126,465.4,103,446.5,84.1z
		 M390.2,127.2c13.7,13.7,20.4,29.7,20.4,48.9c0,12.1-3,23.2-9.1,33.9c-2,3.5-4.2,6.6-6.6,9.6c-4.9,1.2-9.9,1.8-15.2,1.8h-3.1
		c-18.5,0-34-6.8-47.5-20.7c-13.6-14-20.2-29.9-20.2-48.7c0-16.5,5.2-30.7,15.7-43.3c5.2-1.2,10.8-1.9,16.6-1.9
		C360.5,106.8,376.5,113.5,390.2,127.2z"/>
	<g>
		<path class="st1" d="M378.4,83c-19.2,0-35.2,6.7-48.9,20.5s-20.4,29.6-20.4,48.3c0,18.8,6.6,34.7,20.2,48.7
			c13.5,13.9,29,20.7,47.5,20.7h3.1c12.1,0,23.2-3.1,33.7-9.5c10.7-6.5,18.9-14.8,25-25.6c6.1-10.7,9.1-21.8,9.1-33.9
			c0-19.2-6.7-35.2-20.4-48.9C413.6,89.7,397.6,83,378.4,83z M379.9,248.6h-3.3c-25.8,0-48.4-9.7-67-29
			c-18.5-19.1-27.9-41.9-27.9-67.8c0-26,9.5-48.7,28.4-67.6s41.8-28.5,68.3-28.5s49.5,9.6,68.3,28.4s28.4,41.8,28.4,68.3
			c0,16.8-4.3,32.7-12.7,47.4c-8.4,14.7-20.1,26.6-34.7,35.4C413,244.1,396.9,248.6,379.9,248.6z"/>
	</g>
</g>
<polygon class="st2" points="465.8,73.4 465.8,96 447.1,110.7 465.8,124.1 465.8,146.6 502.6,146.6 535.7,146.6 625.5,146.6 
	625.5,73.4 "/>
<rect x="165" y="288.1" class="st1" width="353" height="105.7"/>
<g>
	<circle class="st2" cx="395.5" cy="361.2" r="9.7"/>
	<g>
		<path class="st2" d="M231.6,351.6h-26.5c0.2,1.9,0.6,3.3,1.4,4.4c0.8,1.1,2.1,1.8,3.9,2.3c1.8,0.5,4.2,0.7,7.4,0.7s7-0.4,11.3-1.3
			V369c-4.5,0.9-9,1.4-13.5,1.4c-6,0-10.9-0.8-14.6-2.4c-3.8-1.6-6.5-4.1-8.3-7.5s-2.7-7.8-2.7-13.2c0-4.8,0.8-8.9,2.5-12.4
			c1.7-3.4,4.1-6.1,7.3-7.9s7.1-2.7,11.8-2.7c6.6,0,11.6,2,15,6.1c3.4,4,5.1,9.8,5.1,17.4v3.8L231.6,351.6L231.6,351.6z
			 M206.7,335.8c-1,1.4-1.5,3.8-1.6,7.2h12.4c-0.1-3.4-0.6-5.8-1.6-7.2c-1-1.4-2.5-2.1-4.6-2.1C209.2,333.7,207.7,334.4,206.7,335.8
			z"/>
		<path class="st2" d="M246.9,368c-2.8-1.6-5-4-6.7-7.3s-2.5-7.5-2.5-12.5c0-7.7,2.1-13.6,6.4-17.8c4.2-4.1,10.4-6.2,18.5-6.2
			c1.2,0,2.7,0.1,4.4,0.2v-20.5h15.3v65.6h-12.8l-0.9-4.6h-0.7c-1.3,1.7-2.9,3-4.9,4s-4.2,1.4-6.8,1.4
			C252.8,370.3,249.7,369.5,246.9,368z M264.3,357.4c1.1-0.4,2-0.9,2.8-1.6v-19.7c-1.4-0.3-2.8-0.4-4.4-0.4c-3.3,0-5.7,0.9-7.3,2.6
			c-1.6,1.8-2.4,4.7-2.4,8.7s0.7,6.8,2,8.5c1.3,1.6,3.3,2.5,5.8,2.5C262,357.9,263.2,357.8,264.3,357.4z"/>
		<path class="st2" d="M296.6,365.9c-2.8-2.9-4.2-7.5-4.2-13.7v-27.3h15.3v26.3c0,2.2,0.4,3.7,1.3,4.7c0.9,0.9,2.1,1.4,3.7,1.4
			c1.2,0,2.4-0.2,3.6-0.8c1.2-0.5,2.2-1.2,3-2.1V325h15.3v44.5h-12.7l-1-4.3h-0.6c-1.7,1.7-3.5,3-5.6,3.8c-2.1,0.9-4.3,1.3-6.6,1.3
			C303.2,370.3,299.4,368.8,296.6,365.9z"/>
		<path class="st2" d="M349.1,364.6c-4.1-3.9-6.2-9.6-6.2-17.2c0-7.7,2.2-13.5,6.6-17.3c4.4-3.9,10.7-5.8,19-5.8
			c3.8,0,7.2,0.3,10.3,1v11.9c-2.8-0.5-5.5-0.7-8.1-0.7c-4.2,0-7.3,0.9-9.2,2.6s-2.9,4.4-2.9,8.2c0,3.9,0.9,6.7,2.7,8.4
			c1.8,1.7,4.6,2.6,8.3,2.6c1.4,0,2.7-0.1,4.1-0.3c1.4-0.2,3-0.6,5-1v11.9c-1.6,0.5-3.4,0.9-5.4,1.2c-2,0.3-4,0.4-6.1,0.4
			C359.3,370.4,353.2,368.4,349.1,364.6z"/>
		<path class="st2" d="M443.1,326.1c3.1,1.3,5.5,3.3,6.9,6.2c1.5,2.9,2.2,6.8,2.2,11.7v25.5h-12.5l-1.1-4.2h-0.7
			c-1.2,1.7-2.8,3-4.8,3.8c-1.9,0.8-4.2,1.2-6.6,1.2c-3.1,0-5.7-0.6-7.9-1.7c-2.2-1.1-3.9-2.7-5.1-4.6c-1.2-2-1.7-4.3-1.7-6.9
			c0-4.4,1.5-7.8,4.6-10.2c3.1-2.4,8-3.8,14.7-4.2l6.3-0.4c-0.1-1.7-0.4-3-1-4s-1.6-1.7-3-2.1s-3.2-0.6-5.6-0.6
			c-1.8,0-3.8,0.1-6,0.4s-4.2,0.7-6.1,1.3V326c2.2-0.6,4.7-1.1,7.3-1.4c2.7-0.3,5.2-0.5,7.6-0.5
			C435.8,324.2,439.9,324.9,443.1,326.1z M434.7,359.5c1-0.3,1.9-0.8,2.7-1.4v-7.3l-4.6,0.3c-2.1,0.1-3.6,0.6-4.5,1.4
			c-1,0.8-1.4,1.9-1.4,3.3s0.4,2.4,1.3,3.1s2.1,1.1,3.7,1.1C432.7,359.9,433.7,359.8,434.7,359.5z"/>
		<path class="st2" d="M462.3,325h12.5l1.2,5.7h0.7c1.1-2.2,2.6-3.8,4.6-4.8c1.9-1,4.2-1.6,6.8-1.6c1.1,0,2.3,0.1,3.6,0.3v13.8
			c-1.2-0.3-2.7-0.4-4.6-0.4s-3.7,0.3-5.4,1c-1.7,0.6-3.1,1.5-4,2.6v28h-15.3L462.3,325L462.3,325z"/>
	</g>
</g>
<path class="st0" d="M228.7,215.1c-2-0.2-4-0.2-5.9-0.2c-16.5,0-33,0-49.6,0c24.9-14.4,50.7-31.2,62.3-57.4
	c11.2-25.4,6.1-57.1-12.5-77.7S173.3,51,146.9,59.6c-14.7,4.8-27.5,14.2-40.3,22.8C97,88.8,87,95,78.9,103.3
	c-5.9,6.1-10.7,13.2-14.2,20.9c-1.7,3.9-3.1,8-4.1,12.1c-1,3.9-2.8,16-2.7,18.5s0.8,5,2.1,7.1c2.6,4.4,7.5,7.3,12.6,7.5
	c6,0.2,11.5-3.1,16.6-6.3c8.5-5.4,17-10.7,25.5-16.1c3.1-2,6.3-4,8.4-7c6.1-8.7,1.4-22.2,8.3-30.2c14.6-0.8,29.1,7.5,36.4,20.1
	c7.3,12.6,7.4,28.9,0.8,42c-7.7,15.5-23.2,25.4-37.9,34.5c-19.3,12-38.6,23.9-57.9,35.9c-3.8,2.4-7.8,4.8-10.4,8.5
	c-2.7,3.6-3.8,8.8-1.6,12.7c3.1,5.5,10.5,6.2,16.8,6.2c35.2,0,70.4,0,105.6,0c4,0,8.1,0,11.9-1.2c3.2-1,6.1-2.7,8.9-4.4
	c5.8-3.5,11.6-7,17.3-10.5c6.7-4,13.6-8.4,17.5-15.1c3.9-6.8,3.4-16.7-3.2-20.9C233.6,216,231.2,215.4,228.7,215.1z"/>
<g>
	<path class="st1" d="M228.9,245.8H108.6c-5.3,0-9.9-3.5-11.4-8.6s0.6-10.5,5.1-13.3l76.3-48.3c21.4-13.5,31.9-28.8,31.9-46.6
		c0-11.8-3.8-21.9-11.5-30.6c-7.3-8.3-16.9-12.4-29.3-12.4c-12.5,0-22.7,4.4-31,13.3c-8.5,9.3-12.7,20.2-12.7,33.6
		c0,6.6-5.3,11.9-11.9,11.9h-6.8c-6.6,0-11.9-5.3-11.9-11.9c0-21.6,7.2-40,21.3-54.6c14.2-14.7,32.1-22.2,53.3-22.2
		c21.3,0,38.8,7.4,52,22.1c12.9,14.3,19.5,31.5,19.5,51c0,28.3-14.9,52-44.3,70.4l-24.3,15.2h56c6.6,0,11.9,5.3,11.9,11.9v7.2
		C240.8,240.5,235.5,245.8,228.9,245.8z"/>
</g>
<g>
	<path class="st3" d="M500.9,98.8c1.7,0.7,3,1.8,3.8,3.4c0.8,1.6,1.3,3.7,1.3,6.5v16.8h-5.4l-0.5-2.8h-0.4c-0.8,1.1-1.9,1.9-3.2,2.5
		c-1.3,0.6-2.7,0.8-4.3,0.8c-1.8,0-3.3-0.3-4.6-1c-1.3-0.6-2.3-1.5-3-2.7s-1-2.5-1-4.1c0-2.5,0.9-4.5,2.6-5.9s4.5-2.2,8.2-2.5
		l5.1-0.5v-1.1c0-1.4-0.2-2.5-0.7-3.3c-0.4-0.8-1.1-1.4-2.1-1.7c-0.9-0.3-2.2-0.5-3.8-0.5c-1.1,0-2.3,0.1-3.6,0.3
		c-1.3,0.2-2.6,0.5-3.8,0.9v-5c1.2-0.4,2.6-0.7,4.1-0.9s3-0.3,4.4-0.3C496.9,97.7,499.2,98.1,500.9,98.8z M497.1,120.8
		c0.9-0.4,1.7-1,2.4-1.8v-5.8l-4.5,0.4c-1.7,0.2-3,0.6-3.8,1.2c-0.8,0.7-1.2,1.6-1.2,2.8s0.4,2.1,1.1,2.8c0.7,0.6,1.8,1,3.1,1
		C495.3,121.3,496.2,121.1,497.1,120.8z"/>
	<path class="st3" d="M517.3,98.2h5.4l0.5,2.9h0.3c1-1.1,2.3-1.9,3.7-2.5c1.4-0.6,2.9-0.9,4.5-0.9c2.8,0,5.1,0.8,6.7,2.5
		s2.5,4.3,2.5,7.9v17.4h-6.6v-17c0-1.8-0.4-3.1-1.2-3.9c-0.8-0.8-1.9-1.2-3.4-1.2c-1.1,0-2.2,0.2-3.3,0.7c-1.1,0.5-2,1.1-2.7,2.1
		v19.3h-6.6V98.2H517.3z M531,92.4c-0.6-0.2-1.4-0.5-2.3-0.9c-0.8-0.4-1.4-0.6-1.9-0.8s-1.1-0.3-1.6-0.3c-0.9,0-1.7,0.2-2.4,0.5
		c-0.7,0.3-1.4,0.8-2.2,1.6v-4.2c0.6-0.6,1.3-1.1,2-1.4c0.8-0.3,1.6-0.5,2.6-0.5c0.7,0,1.3,0.1,2,0.3c0.6,0.2,1.4,0.5,2.3,0.9
		c0.8,0.4,1.4,0.6,2,0.8c0.5,0.2,1,0.3,1.6,0.3c0.9,0,1.7-0.2,2.4-0.5c0.7-0.3,1.4-0.8,2.1-1.6v4.2c-0.6,0.6-1.3,1.1-2,1.4
		c-0.8,0.3-1.6,0.5-2.6,0.5C532.3,92.7,531.6,92.6,531,92.4z"/>
	<path class="st3" d="M554.3,122.5c-2.2-2.4-3.4-5.9-3.4-10.6c0-4.7,1.1-8.3,3.3-10.6c2.2-2.4,5.4-3.5,9.4-3.5s7.2,1.2,9.4,3.5
		s3.3,5.9,3.3,10.6c0,3.1-0.5,5.8-1.5,7.9c-1,2.1-2.5,3.7-4.4,4.7s-4.2,1.6-6.8,1.6C559.7,126,556.5,124.8,554.3,122.5z
		 M568.2,118.9c1-1.4,1.5-3.7,1.5-7s-0.5-5.7-1.5-7.1c-1-1.4-2.6-2.1-4.6-2.1s-3.5,0.7-4.6,2.1c-1,1.4-1.5,3.7-1.5,7
		c0,2.3,0.2,4.1,0.7,5.4s1.2,2.3,2.1,2.9c0.9,0.6,2,0.9,3.3,0.9C565.7,120.9,567.2,120.3,568.2,118.9z"/>
	<path class="st3" d="M585.8,124.9V120c2.7,0.8,5.4,1.2,8.3,1.2c1.9,0,3.4-0.3,4.2-0.9s1.3-1.4,1.3-2.5c0-0.9-0.2-1.6-0.7-2
		c-0.5-0.5-1.3-0.8-2.4-1.1l-4.2-0.8c-2.5-0.5-4.4-1.4-5.5-2.6c-1.2-1.3-1.7-3-1.7-5.1c0-1.7,0.4-3.2,1.3-4.5s2.3-2.2,4.1-2.9
		s4.1-1.1,6.8-1.1c2.5,0,4.9,0.3,7,0.9v4.9c-2.2-0.6-4.4-0.9-6.8-0.9c-4.1,0-6.2,1.1-6.2,3.4c0,0.8,0.2,1.4,0.7,1.9s1.2,0.8,2.3,1.1
		l4.2,0.8c2.5,0.5,4.3,1.4,5.5,2.6c1.2,1.2,1.8,2.9,1.8,5.2c0,1.8-0.5,3.3-1.4,4.5c-0.9,1.2-2.2,2.2-4,2.9c-1.7,0.7-3.9,1-6.3,1
		C591,126,588.3,125.6,585.8,124.9z"/>
</g>
<g>
	<path class="st2" d="M88.8,334.8c-1.9-1.1-3.5-2.8-4.6-5.1s-1.7-5.2-1.7-8.8c0-5.5,1.5-9.6,4.3-12.5c2.9-2.9,7.1-4.3,12.6-4.3
		c1.3,0,2.5,0.1,3.6,0.2v-14.6h9.1v46.1h-7.6l-0.6-3.3h-0.4c-0.9,1.2-2.1,2.1-3.5,2.8c-1.4,0.7-3,1-4.8,1
		C92.9,336.4,90.7,335.8,88.8,334.8z M100.8,328.4c0.9-0.4,1.7-0.9,2.3-1.6v-15.4c-1.1-0.2-2.3-0.3-3.6-0.3c-2.7,0-4.6,0.7-5.9,2.2
		c-1.3,1.4-1.9,3.8-1.9,7s0.5,5.5,1.6,6.8s2.6,2,4.7,2C98.9,328.9,99.9,328.8,100.8,328.4z"/>
	<path class="st2" d="M146.8,322.9h-18.9c0.1,1.7,0.5,3,1.1,3.9c0.6,1,1.6,1.7,2.9,2.1c1.3,0.4,3.1,0.6,5.4,0.6c2.4,0,5-0.3,7.9-1
		v6.8c-3,0.7-6.1,1.1-9.2,1.1c-4,0-7.2-0.6-9.7-1.7c-2.5-1.1-4.4-2.9-5.6-5.3c-1.2-2.4-1.8-5.5-1.8-9.3c0-3.4,0.6-6.3,1.7-8.7
		c1.1-2.4,2.8-4.2,4.9-5.5c2.2-1.2,4.8-1.9,7.9-1.9c4.4,0,7.8,1.4,10.1,4.2c2.3,2.8,3.5,6.8,3.5,12.2v2.5L146.8,322.9L146.8,322.9z
		 M129.2,311.7c-0.9,1.2-1.3,3.2-1.4,5.9h10.5c-0.1-2.8-0.5-4.8-1.3-5.9c-0.8-1.2-2.1-1.8-3.8-1.8
		C131.4,309.9,130.1,310.5,129.2,311.7z"/>
</g>
<polygon class="st0" points="127.8,354.8 127.8,346.6 143.2,362 127.8,377.4 127.8,369.2 107.2,369.2 107.2,354.8 "/>
<g>
	<rect x="210.1" y="626.6" class="st4" width="209" height="64.6"/>
	<rect x="220.7" y="617.7" class="st2" width="209" height="62.6"/>
	<g>
		<path class="st3" d="M256.4,666.6c1.1-1.5,1.9-3,2.3-4.5c0.4-1.5,0.7-3.3,0.7-5.5v-23.8h7.7v23.6c0,2.6-0.5,5-1.4,7.1
			s-2.4,4.2-4.5,6.3L256.4,666.6z"/>
		<path class="st3" d="M277.4,660c-2.1-2.2-3.2-5.5-3.2-9.9V633h7.8v17.9c0,2.1,0.4,3.7,1.3,4.7c0.9,1,2.3,1.5,4.1,1.5
			s3.2-0.5,4.1-1.5c0.9-1,1.3-2.5,1.3-4.7V633h7.6v17.1c0,4.4-1.1,7.8-3.2,9.9c-2.1,2.2-5.4,3.3-9.8,3.3
			C282.9,663.2,279.6,662.1,277.4,660z"/>
		<path class="st3" d="M329.7,648.2v14.2c-2.8,0.5-5.4,0.7-7.7,0.7c-5.9,0-10.4-1.3-13.3-3.8c-2.9-2.5-4.4-6.3-4.4-11.5
			c0-5.1,1.5-8.9,4.5-11.5s7.4-3.9,13.3-3.9c2.4,0,4.6,0.2,6.7,0.7v6.3c-2-0.4-4-0.7-6-0.7c-2.5,0-4.5,0.3-6,0.9
			c-1.5,0.6-2.6,1.6-3.4,3c-0.7,1.3-1.1,3.1-1.1,5.3c0,3,0.7,5.2,2.2,6.7c1.5,1.4,3.7,2.1,6.8,2.1c0.5,0,0.9,0,1.2,0v-8.5H329.7z"/>
		<path class="st3" d="M355.4,662.8l-2.2-7.4h-10.5l-2.1,7.4h-7.5l9.3-29.9h11.4l9.3,29.9H355.4z M344.5,649.3h6.9l-3.5-11.8
			L344.5,649.3z"/>
		<path class="st3" d="M383.8,662.8l-7.1-10.5c-0.4,0-1,0-1.7,0c-0.5,0-0.8,0-1,0v10.5h-7.6v-29.2c1.5-0.3,3.1-0.6,4.8-0.8
			s3.4-0.3,5-0.3c4.5,0,7.8,0.8,10,2.4c2.2,1.6,3.4,4.1,3.4,7.4c0,2.1-0.5,3.8-1.4,5.3c-1,1.5-2.3,2.6-4.1,3.4l8.1,11.8L383.8,662.8
			L383.8,662.8z M374,646.5c1,0.1,2,0.2,3,0.2c1.8,0,3.2-0.3,4.1-1c0.9-0.7,1.3-1.7,1.3-3.2s-0.4-2.5-1.3-3.2c-0.9-0.7-2.2-1-4-1
			c-1.1,0-2.1,0.1-3.1,0.3V646.5z"/>
	</g>
</g>
<g>
	<g>
		<path class="st0" d="M80.5,589.3l-19.6-66.6l40.8-11.5c0,0,26.6-5.3,33.7,19.5s-22.1,34.6-26.5,35.5l4.4,14.2L80.5,589.3z"/>
		<polygon class="st0" points="131.1,575.9 163.9,493.4 216.3,560.9 		"/>
		<path class="st0" d="M246,523.1l30.7-16.8c-6.1-11.4-18.2-19.1-32-19.1c-20.1,0-36.4,16.3-36.4,36.4s16.3,36.4,36.4,36.4
			c15.8,0,29.3-10.1,34.3-24.3L246,523.1z"/>
		<rect x="285.9" y="515.1" class="st0" width="26.6" height="10.7"/>
		<polygon class="st0" points="317,556 317,479.6 355.2,515.1 396.9,483.2 390.7,559.5 		"/>
		<polygon class="st0" points="396.9,559.5 452.8,491.2 482.1,572.8 		"/>
		<polygon class="st0" points="502.5,499.2 486.5,572.8 549.6,589.7 569.1,521.4 534.5,512.5 529.2,535.6 		"/>
	</g>
	<path class="st4" d="M90.2,584.8l-19.5-66.6l40.8-11.5c0,0,26.6-5.3,33.7,19.5s-22.2,34.6-26.6,35.5l4.4,14.2L90.2,584.8z"/>
	<polygon class="st4" points="140.8,571.5 173.7,489 226,556.4 	"/>
	<path class="st4" d="M255.8,518.7l30.7-16.8c-6.1-11.4-18.2-19.1-32-19.1c-20.1,0-36.4,16.3-36.4,36.4s16.3,36.4,36.4,36.4
		c15.8,0,29.3-10.1,34.3-24.3L255.8,518.7z"/>
	<rect x="295.7" y="510.7" class="st4" width="26.6" height="10.7"/>
	<polygon class="st4" points="326.8,551.5 326.8,475.2 364.9,510.7 406.7,478.8 400.4,555.1 	"/>
	<polygon class="st4" points="406.7,555.1 462.6,486.7 491.9,568.4 	"/>
	<polygon class="st4" points="512.3,494.7 496.3,568.4 559.3,585.3 578.9,516.9 544.2,508 538.9,531.1 	"/>
	<circle class="st5" cx="119.5" cy="534.2" r="3.6"/>
	<circle class="st5" cx="179.4" cy="535.6" r="3.6"/>
	<circle class="st5" cx="452.8" cy="533.8" r="3.6"/>
</g>
</svg>
