<?xml version="1.0" encoding="UTF-8" standalone="no"?>
<svg
   xmlns:dc="http://purl.org/dc/elements/1.1/"
   xmlns:cc="http://creativecommons.org/ns#"
   xmlns:rdf="http://www.w3.org/1999/02/22-rdf-syntax-ns#"
   xmlns:svg="http://www.w3.org/2000/svg"
   xmlns="http://www.w3.org/2000/svg"
   xmlns:sodipodi="http://sodipodi.sourceforge.net/DTD/sodipodi-0.dtd"
   xmlns:inkscape="http://www.inkscape.org/namespaces/inkscape"
   inkscape:version="1.0 (4035a4fb49, 2020-05-01)"
   sodipodi:docname="game_over.svg"
   id="svg18"
   version="1.1"
   fill="none"
   viewBox="0 0 80 16"
   height="16"
   width="80">
  <metadata
     id="metadata24">
    <rdf:RDF>
      <cc:Work
         rdf:about="">
        <dc:format>image/svg+xml</dc:format>
        <dc:type
           rdf:resource="http://purl.org/dc/dcmitype/StillImage" />
      </cc:Work>
    </rdf:RDF>
  </metadata>
  <defs
     id="defs22" />
  <sodipodi:namedview
     inkscape:current-layer="svg18"
     inkscape:window-maximized="0"
     inkscape:window-y="0"
     inkscape:window-x="1920"
     inkscape:cy="-10.117793"
     inkscape:cx="68.498473"
     inkscape:zoom="11.490485"
     showgrid="false"
     id="namedview20"
     inkscape:window-height="1080"
     inkscape:window-width="1920"
     inkscape:pageshadow="2"
     inkscape:pageopacity="0"
     guidetolerance="10"
     gridtolerance="10"
     objecttolerance="10"
     borderopacity="1"
     bordercolor="#666666"
     pagecolor="#ffffff" />
  <path
     d="M 6.8831224,7.4614965 V 3.801507 h 3.1371336 3.137134 v 0.5228556 0.5228557 h 0.522856 0.522855 V 6.4157852 7.9843521 H 13.680246 13.15739 V 8.5072078 9.0300634 H 11.065968 8.974545 v 1.0457116 1.045711 H 7.9288337 6.8831224 Z M 12.111679,6.4157852 V 4.8472183 H 10.543112 8.974545 v 1.5685669 1.5685669 h 1.568567 1.568567 z"
     style="font-style:normal;font-variant:normal;font-weight:normal;font-stretch:normal;font-size:8.36569px;line-height:1.25;font-family:'Press Start 2P';-inkscape-font-specification:'Press Start 2P';fill:#ff0000;fill-opacity:1;stroke:none;stroke-width:0.784281"
     id="path30" />
  <path
     d="M 15.248813,7.4614965 V 3.801507 h 3.659989 3.65999 v 0.5228556 0.5228557 h -2.614279 -2.614278 v 1.0457113 1.0457112 h 2.091423 2.091422 v 0.5228557 0.5228556 h -2.091422 -2.091423 v 1.0457113 1.0457116 h 2.614278 2.614279 v 0.522855 0.522856 h -3.65999 -3.659989 z"
     style="font-style:normal;font-variant:normal;font-weight:normal;font-stretch:normal;font-size:8.36569px;line-height:1.25;font-family:'Press Start 2P';-inkscape-font-specification:'Press Start 2P';fill:#ff0000;fill-opacity:1;stroke:none;stroke-width:0.784281"
     id="path32" />
  <path
     d="M 23.614503,7.4614965 V 3.801507 h 3.137134 3.137134 v 0.5228556 0.5228557 h 0.522855 0.522856 v 1.5685669 1.5685669 h -1.045711 -1.045712 v 0.5228557 0.5228556 h 0.522856 0.522856 v 0.5228556 0.522856 h 0.522855 0.522856 v 0.522855 0.522856 H 29.365915 27.797348 V 10.59863 10.075775 H 27.274492 26.751637 V 9.552919 9.0300634 h -0.522856 -0.522856 v 1.0457116 1.045711 H 24.660214 23.614503 Z M 28.843059,5.8929296 V 4.8472183 h -1.568567 -1.568567 v 1.5685669 1.5685669 h 1.045712 1.045711 V 7.4614965 6.9386408 h 0.522856 0.522855 z"
     style="font-style:normal;font-variant:normal;font-weight:normal;font-stretch:normal;font-size:8.36569px;line-height:1.25;font-family:'Press Start 2P';-inkscape-font-specification:'Press Start 2P';fill:#ff0000;fill-opacity:1;stroke:none;stroke-width:0.784281"
     id="path34" />
  <path
     d="M 31.980193,7.4614965 V 3.801507 h 2.614278 2.614279 v 0.5228556 0.5228557 h 0.522855 0.522856 v 0.5228556 0.5228557 h 0.522855 0.522856 V 7.4614965 9.0300634 H 38.777316 38.254461 V 9.552919 10.075775 H 37.731605 37.20875 v 0.522855 0.522856 H 34.594471 31.980193 Z M 36.163038,5.3700739 V 4.8472183 h -1.045711 -1.045711 v 2.6142782 2.6142785 h 1.045711 1.045711 V 9.552919 9.0300634 h 0.522856 0.522856 V 7.4614965 5.8929296 h -0.522856 -0.522856 z"
     style="font-style:normal;font-variant:normal;font-weight:normal;font-stretch:normal;font-size:8.36569px;line-height:1.25;font-family:'Press Start 2P';-inkscape-font-specification:'Press Start 2P';fill:#ff0000;fill-opacity:1;stroke:none;stroke-width:0.784281"
     id="path36" />
  <path
     d="M 41.391595,4.3243626 V 3.801507 h 3.137133 3.137134 V 4.3243626 4.8472183 H 46.620151 45.57444 v 2.6142782 2.6142785 h 1.045711 1.045711 v 0.522855 0.522856 H 44.528728 41.391595 V 10.59863 10.075775 h 1.045711 1.045711 V 7.4614965 4.8472183 h -1.045711 -1.045711 z"
     style="font-style:normal;font-variant:normal;font-weight:normal;font-stretch:normal;font-size:8.36569px;line-height:1.25;font-family:'Press Start 2P';-inkscape-font-specification:'Press Start 2P';fill:#ff0000;fill-opacity:1;stroke:none;stroke-width:0.784281"
     id="path38" />
  <path
     d="M 49.757287,4.3243626 V 3.801507 h 2.091422 2.091423 v 0.5228556 0.5228557 h 0.522856 0.522855 V 5.3700739 5.8929296 H 53.940132 52.894421 V 5.3700739 4.8472183 h -1.045712 -1.045711 v 1.0457113 1.0457112 h 2.091423 2.091422 v 0.5228557 0.5228556 h 0.522856 0.522855 v 1.0457113 1.0457116 h -0.522855 -0.522856 v 0.522855 0.522856 H 52.371565 49.757287 V 10.59863 10.075775 H 49.234431 48.711576 V 9.552919 9.0300634 h 1.045711 1.045711 v 0.5228556 0.522856 h 1.568567 1.568567 V 9.0300634 7.9843521 H 51.848709 49.757287 V 7.4614965 6.9386408 H 49.234431 48.711576 V 5.8929296 4.8472183 h 0.522855 0.522856 z"
     style="font-style:normal;font-variant:normal;font-weight:normal;font-stretch:normal;font-size:8.36569px;line-height:1.25;font-family:'Press Start 2P';-inkscape-font-specification:'Press Start 2P';fill:#ff0000;fill-opacity:1;stroke:none;stroke-width:0.784281"
     id="path40" />
  <path
     d="M 58.122975,4.3243626 V 3.801507 h 3.137134 3.137134 V 4.3243626 4.8472183 H 63.351532 62.30582 V 7.9843521 11.121486 H 61.260109 60.214398 V 7.9843521 4.8472183 h -1.045712 -1.045711 z"
     style="font-style:normal;font-variant:normal;font-weight:normal;font-stretch:normal;font-size:8.36569px;line-height:1.25;font-family:'Press Start 2P';-inkscape-font-specification:'Press Start 2P';fill:#ff0000;fill-opacity:1;stroke:none;stroke-width:0.784281"
     id="path42" />
  <path
     d="M 65.442952,7.4614965 V 3.801507 h 3.65999 3.659989 v 0.5228556 0.5228557 h -2.614278 -2.614278 v 1.0457113 1.0457112 h 2.091422 2.091423 v 0.5228557 0.5228556 h -2.091423 -2.091422 v 1.0457113 1.0457116 h 2.614278 2.614278 v 0.522855 0.522856 h -3.659989 -3.65999 z"
     style="font-style:normal;font-variant:normal;font-weight:normal;font-stretch:normal;font-size:8.36569px;line-height:1.25;font-family:'Press Start 2P';-inkscape-font-specification:'Press Start 2P';fill:#ff0000;fill-opacity:1;stroke:none;stroke-width:0.784281"
     id="path44" />
</svg>
